<?xml version="1.0"?>
<svg xmlns="http://www.w3.org/2000/svg" height="512px" viewBox="-20 -20 642.66531 642.66531" width="512px" class=""><g><path d="m340.121094 602.5h-330.40625c-5.363282 0-9.714844-4.347656-9.714844-9.71875v-369.269531c0-16.082031 13.074219-29.15625 29.15625-29.15625h291.53125c16.074219 0 29.152344 13.074219 29.152344 29.15625v369.269531c0 5.371094-4.347656 9.71875-9.71875 9.71875zm-320.683594-19.433594h310.96875v-359.554687c0-5.359375-4.355469-9.71875-9.71875-9.71875h-291.53125c-5.363281 0-9.71875 4.359375-9.71875 9.71875zm0 0" data-original="#000000" class="active-path" data-old_color="#8052A4" fill="#7F51A3"/><path d="m9.714844 272.097656h330.40625v19.433594h-330.40625zm0 0" data-original="#000000" class="active-path" data-old_color="#8052A4" fill="#7F51A3"/><path d="m194.355469 252.660156h-38.871094c-26.792969 0-48.589844-21.796875-48.589844-48.589844 0-5.363281 4.351563-9.714843 9.714844-9.714843h116.613281c5.367188 0 9.722656 4.351562 9.722656 9.714843 0 26.792969-21.796874 48.589844-48.589843 48.589844zm-66.359375-38.871094c4.011718 11.3125 14.820312 19.4375 27.488281 19.4375h38.871094c12.664062 0 23.476562-8.125 27.484375-19.4375zm0 0" data-original="#000000" class="active-path" data-old_color="#8052A4" fill="#7F51A3"/><path d="m38.871094 233.226562h19.433594v19.433594h-19.433594zm0 0" data-original="#000000" class="active-path" data-old_color="#8052A4" fill="#7F51A3"/><path d="m77.742188 233.226562h19.433593v19.433594h-19.433593zm0 0" data-original="#000000" class="active-path" data-old_color="#8052A4" fill="#7F51A3"/><path d="m252.660156 233.226562h19.433594v19.433594h-19.433594zm0 0" data-original="#000000" class="active-path" data-old_color="#8052A4" fill="#7F51A3"/><path d="m291.53125 233.226562h19.433594v19.433594h-19.433594zm0 0" data-original="#000000" class="active-path" data-old_color="#8052A4" fill="#7F51A3"/><path d="m174.921875 524.757812c-58.945313 0-106.894531-47.953124-106.894531-106.890624 0-58.945313 47.949218-106.894532 106.894531-106.894532 58.941406 0 106.894531 47.949219 106.894531 106.894532 0 58.9375-47.953125 106.890624-106.894531 106.890624zm0-194.351562c-48.226563 0-87.460937 39.226562-87.460937 87.460938 0 48.226562 39.234374 87.453124 87.460937 87.453124 48.222656 0 87.457031-39.226562 87.457031-87.453124 0-48.234376-39.234375-87.460938-87.457031-87.460938zm0 0" data-original="#000000" class="active-path" data-old_color="#8052A4" fill="#7F51A3"/><path d="m174.921875 485.886719c-37.511719 0-68.027344-30.523438-68.027344-68.019531 0-37.507813 30.515625-68.027344 68.027344-68.027344 37.503906 0 68.023437 30.519531 68.023437 68.027344 0 37.496093-30.519531 68.019531-68.023437 68.019531zm0-116.609375c-26.792969 0-48.589844 21.796875-48.589844 48.589844 0 26.785156 21.796875 48.585937 48.589844 48.585937 26.785156 0 48.589844-21.800781 48.589844-48.585937 0-26.792969-21.804688-48.589844-48.589844-48.589844zm0 0" data-original="#000000" class="active-path" data-old_color="#8052A4" fill="#7F51A3"/><path d="m233.226562 408.144531h38.871094v19.4375h-38.871094zm0 0" data-original="#000000" class="active-path" data-old_color="#8052A4" fill="#7F51A3"/><path d="m77.742188 408.144531h38.875v19.4375h-38.875zm0 0" data-original="#000000" class="active-path" data-old_color="#8052A4" fill="#7F51A3"/><path d="m150.625 447.015625h-34.015625v-19.433594h34.015625c2.679688 0 4.859375-2.183593 4.859375-4.859375 0-13.402344 10.898437-24.296875 24.289063-24.296875h19.441406c2.679687 0 4.855468-2.179687 4.855468-4.855469v-19.160156h19.433594v19.160156c0 13.402344-10.898437 24.296876-24.289062 24.296876h-19.441406c-2.679688 0-4.855469 2.179687-4.855469 4.855468.003906 13.398438-10.898438 24.292969-24.292969 24.292969zm0 0" data-original="#000000" class="active-path" data-old_color="#8052A4" fill="#7F51A3"/><path d="m9.714844 544.191406h330.40625v19.433594h-330.40625zm0 0" data-original="#000000" class="active-path" data-old_color="#8052A4" fill="#7F51A3"/><path d="m165.199219 213.789062h-136.042969c-4.464844 0-8.351562-3.039062-9.429688-7.359374l-19.4375-77.738282c-.722656-2.90625-.070312-5.980468 1.769532-8.339844 1.84375-2.359374 4.664062-3.742187 7.65625-3.742187h174.921875c2.996093 0 5.816406 1.382813 7.65625 3.742187 1.84375 2.359376 2.5 5.433594 1.773437 8.339844l-19.4375 77.738282c-1.078125 4.320312-4.964844 7.359374-9.429687 7.359374zm-128.457031-19.433593h120.875l14.574218-58.304688h-150.027344zm0 0" data-original="#000000" class="active-path" data-old_color="#8052A4" fill="#7F51A3"/><path d="m145.765625 136.050781h-97.175781c-16.074219 0-29.15625-13.078125-29.15625-29.15625 0-16.074219 13.082031-29.152343 29.15625-29.152343h97.175781c16.074219 0 29.15625 13.078124 29.15625 29.152343 0 16.078125-13.082031 29.15625-29.15625 29.15625zm-97.175781-38.875c-5.359375 0-9.71875 4.363281-9.71875 9.71875s4.359375 9.714844 9.71875 9.714844h97.175781c5.355469 0 9.71875-4.359375 9.71875-9.714844s-4.363281-9.71875-9.71875-9.71875zm0 0" data-original="#000000" class="active-path" data-old_color="#8052A4" fill="#7F51A3"/><path d="m145.765625 97.175781h-97.175781c-16.074219 0-29.15625-13.074219-29.15625-29.152343 0-16.074219 13.082031-29.152344 29.15625-29.152344h97.175781c16.074219 0 29.15625 13.078125 29.15625 29.152344 0 16.078124-13.082031 29.152343-29.15625 29.152343zm-97.175781-38.871093c-5.359375 0-9.71875 4.359374-9.71875 9.71875 0 5.355468 4.359375 9.71875 9.71875 9.71875h97.175781c5.355469 0 9.71875-4.363282 9.71875-9.71875 0-5.359376-4.363281-9.71875-9.71875-9.71875zm0 0" data-original="#000000" class="active-path" data-old_color="#8052A4" fill="#7F51A3"/><path d="m145.765625 58.304688h-97.175781c-16.074219 0-29.15625-13.074219-29.15625-29.148438 0-16.082031 13.082031-29.15625 29.15625-29.15625h97.175781c16.074219 0 29.15625 13.074219 29.15625 29.15625 0 16.074219-13.082031 29.148438-29.15625 29.148438zm-97.175781-38.867188c-5.359375 0-9.71875 4.359375-9.71875 9.71875 0 5.355469 4.359375 9.714844 9.71875 9.714844h97.175781c5.355469 0 9.71875-4.359375 9.71875-9.714844 0-5.359375-4.363281-9.71875-9.71875-9.71875zm0 0" data-original="#000000" class="active-path" data-old_color="#8052A4" fill="#7F51A3"/><path d="m592.78125 602.5h-77.742188c-5.371093 0-9.71875-4.347656-9.71875-9.71875v-145.765625c0-2.582031 1.027344-5.050781 2.847657-6.871094l16.589843-16.589843v-64c0-5.371094 4.347657-9.714844 9.71875-9.714844h38.871094c5.371094 0 9.71875 4.34375 9.71875 9.714844v64l16.585938 16.589843c1.820312 1.820313 2.847656 4.289063 2.847656 6.871094v145.765625c0 5.371094-4.347656 9.71875-9.71875 9.71875zm-68.023438-19.433594h58.308594v-132.027344l-16.59375-16.585937c-1.820312-1.828125-2.847656-4.292969-2.847656-6.871094v-58.304687h-19.433594v58.304687c0 2.578125-1.023437 5.050781-2.84375 6.871094l-16.59375 16.585937v132.027344zm0 0" data-original="#000000" class="active-path" data-old_color="#8052A4" fill="#7F51A3"/><path d="m534.476562 388.710938h38.871094v19.433593h-38.871094zm0 0" data-original="#000000" class="active-path" data-old_color="#8052A4" fill="#7F51A3"/><path d="m592.78125 563.625h-77.742188c-5.371093 0-9.71875-4.34375-9.71875-9.714844v-58.304687c0-5.371094 4.347657-9.71875 9.71875-9.71875h77.742188c5.371094 0 9.71875 4.347656 9.71875 9.71875v58.304687c0 5.371094-4.347656 9.714844-9.71875 9.714844zm-68.023438-19.433594h58.308594v-38.871094h-58.308594zm0 0" data-original="#000000" class="active-path" data-old_color="#8052A4" fill="#7F51A3"/><path d="m515.039062 602.5h-136.046874c-5.371094 0-9.714844-4.347656-9.714844-9.71875v-272.09375c0-5.371094 4.34375-9.714844 9.714844-9.714844h194.355468c5.371094 0 9.71875 4.34375 9.71875 9.714844v38.871094h-19.441406v-29.152344h-174.914062v252.660156h126.328124zm0 0" data-original="#000000" class="active-path" data-old_color="#8052A4" fill="#7F51A3"/><path d="m515.039062 544.191406h-136.046874c-5.371094 0-9.714844-4.34375-9.714844-9.714844v-155.484374c0-5.371094 4.34375-9.714844 9.714844-9.714844h155.484374v19.433594h-145.765624v136.046874h126.328124zm0 0" data-original="#000000" class="active-path" data-old_color="#8052A4" fill="#7F51A3"/><path d="m378.992188 447.015625h68.023437v19.433594h-68.023437zm0 0" data-original="#000000" class="active-path" data-old_color="#8052A4" fill="#7F51A3"/><path d="m378.992188 485.886719h68.023437v19.433593h-68.023437zm0 0" data-original="#000000" class="active-path" data-old_color="#8052A4" fill="#7F51A3"/><path d="m378.992188 408.144531h68.023437v19.4375h-68.023437zm0 0" data-original="#000000" class="active-path" data-old_color="#8052A4" fill="#7F51A3"/><path d="m437.300781 213.789062c-30.09375 0-57.511719-17.792968-70.230469-44.445312-8.460937 3.667969-17.613281 5.574219-26.949218 5.574219-37.503906 0-68.023438-30.515625-68.023438-68.023438 0-37.511719 30.519532-68.023437 68.023438-68.023437 9.335937 0 18.488281 1.910156 26.949218 5.578125 12.71875-26.65625 40.136719-44.449219 70.230469-44.449219 30.089844 0 57.507813 17.792969 70.222657 44.449219 8.464843-3.667969 17.613281-5.578125 26.953124-5.578125 37.503907 0 68.023438 30.511718 68.023438 68.023437 0 37.507813-30.519531 68.023438-68.023438 68.023438-9.339843 0-18.488281-1.90625-26.953124-5.574219-12.714844 26.652344-40.132813 44.445312-70.222657 44.445312zm-65.152343-67.914062c1.121093 0 2.242187.195312 3.324218.585938 2.882813 1.046874 5.101563 3.402343 5.988282 6.339843 7.332031 24.46875 30.300781 41.554688 55.839843 41.554688 25.535157 0 48.5-17.085938 55.835938-41.554688.878906-2.941406 3.101562-5.292969 5.988281-6.339843 2.90625-1.042969 6.101562-.664063 8.660156 1.019531 7.957032 5.238281 17.179688 8.003906 26.691406 8.003906 26.785157 0 48.589844-21.796875 48.589844-48.589844 0-26.789062-21.804687-48.589843-48.589844-48.589843-9.511718 0-18.734374 2.769531-26.691406 8.007812-2.558594 1.695312-5.753906 2.0625-8.660156 1.019531-2.886719-1.046875-5.109375-3.402343-5.988281-6.347656-7.335938-24.460937-30.300781-41.550781-55.835938-41.550781-25.539062 0-48.507812 17.089844-55.839843 41.550781-.886719 2.945313-3.105469 5.300781-5.988282 6.347656-2.894531 1.042969-6.09375.675781-8.667968-1.019531-7.949219-5.238281-17.175782-8.007812-26.683594-8.007812-26.792969 0-48.589844 21.800781-48.589844 48.589843 0 26.792969 21.796875 48.589844 48.589844 48.589844 9.507812 0 18.734375-2.765625 26.683594-8.003906 1.609374-1.058594 3.46875-1.605469 5.34375-1.605469zm0 0" data-original="#000000" class="active-path" data-old_color="#8052A4" fill="#7F51A3"/><path d="m534.476562 136.050781v-19.433593c5.359376 0 9.714844-4.367188 9.714844-9.722657 0-5.351562-4.355468-9.71875-9.714844-9.71875v-19.433593c16.074219 0 29.148438 13.078124 29.148438 29.152343 0 16.078125-13.074219 29.15625-29.148438 29.15625zm0 0" data-original="#000000" class="active-path" data-old_color="#8052A4" fill="#7F51A3"/><path d="m563.625 291.53125c-21.433594 0-38.867188-17.433594-38.867188-38.871094 0-21.429687 17.433594-38.871094 38.867188-38.871094 21.441406 0 38.875 17.441407 38.875 38.871094 0 21.4375-17.433594 38.871094-38.875 38.871094zm0-58.304688c-10.710938 0-19.433594 8.714844-19.433594 19.433594s8.722656 19.433594 19.433594 19.433594c10.71875 0 19.441406-8.714844 19.441406-19.433594s-8.722656-19.433594-19.441406-19.433594zm0 0" data-original="#000000" class="active-path" data-old_color="#8052A4" fill="#7F51A3"/><path d="m233.226562 77.742188c-21.433593 0-38.871093-17.433594-38.871093-38.871094 0-21.433594 17.4375-38.871094 38.871093-38.871094 21.429688 0 38.871094 17.4375 38.871094 38.871094 0 21.4375-17.441406 38.871094-38.871094 38.871094zm0-58.304688c-10.71875 0-19.4375 8.714844-19.4375 19.433594s8.71875 19.433594 19.4375 19.433594 19.433594-8.714844 19.433594-19.433594-8.714844-19.433594-19.433594-19.433594zm0 0" data-original="#000000" class="active-path" data-old_color="#8052A4" fill="#7F51A3"/></g> </svg>
