<?xml version="1.0"?>
<svg xmlns="http://www.w3.org/2000/svg" height="512px" viewBox="0 0 480 480" width="512px"><g><path d="m72 480h224c4.417969 0 8-3.582031 8-8v-320c0-4.417969-3.582031-8-8-8h-32v-40c0-4.417969-3.582031-8-8-8h-24v-48h96v24c0 4.417969 3.582031 8 8 8h32c4.417969 0 8-3.582031 8-8v-64c0-4.417969-3.582031-8-8-8h-248c-4.417969 0-8 3.582031-8 8v32c0 4.417969 3.582031 8 8 8h32v48h-24c-4.417969 0-8 3.582031-8 8v40h-48c-4.417969 0-8 3.582031-8 8v320c0 4.417969 3.582031 8 8 8zm288-416h-16v-48h16zm-32-32h-56v-16h56zm-200-16h128v16h-128zm40 32h48v48h-48zm-32 64h112v32h-112zm-56 48h208v304h-208zm0 0" data-original="#000000" class="active-path" data-old_color="#8327ce" fill="#8327ce"/><path d="m372.925781 189.648438c5.011719-6.507813 6.667969-14.992188 4.476563-22.910157l-17.683594-64.84375c-.949219-3.480469-4.109375-5.894531-7.71875-5.894531s-6.769531 2.414062-7.71875 5.894531l-17.683594 64.84375c-3.316406 12.152344 2.4375 24.949219 13.730469 30.535157 11.289063 5.582031 24.953125 2.386718 32.597656-7.625zm-12.714843-9.710938c-2.019532 2.453125-5.03125 3.875-8.210938 3.875s-6.191406-1.421875-8.210938-3.875c-1.964843-2.554688-2.613281-5.882812-1.753906-8.988281l9.964844-36.542969 9.964844 36.542969c.859375 3.105469.210937 6.433593-1.753906 8.988281zm0 0" data-original="#000000" class="active-path" data-old_color="#8327ce" fill="#8327ce"/><path d="m264 240h-160c-4.417969 0-8 3.582031-8 8v128c0 4.417969 3.582031 8 8 8h160c4.417969 0 8-3.582031 8-8v-128c0-4.417969-3.582031-8-8-8zm-8 128h-144v-112h144zm0 0" data-original="#000000" class="active-path" data-old_color="#8327ce" fill="#8327ce"/><path d="m360 360c-22.089844 0-40 17.910156-40 40s17.910156 40 40 40 40-17.910156 40-40c-.027344-22.082031-17.917969-39.972656-40-40zm0 64c-13.253906 0-24-10.746094-24-24s10.746094-24 24-24 24 10.746094 24 24c-.015625 13.25-10.75 23.984375-24 24zm0 0" data-original="#000000" class="active-path" data-old_color="#8327ce" fill="#8327ce"/><path d="m424 248c-30.929688 0-56 25.070312-56 56s25.070312 56 56 56 56-25.070312 56-56c-.035156-30.914062-25.085938-55.964844-56-56zm0 96c-22.089844 0-40-17.910156-40-40s17.910156-40 40-40 40 17.910156 40 40c-.027344 22.082031-17.917969 39.972656-40 40zm0 0" data-original="#000000" class="active-path" data-old_color="#8327ce" fill="#8327ce"/><path d="m96 112c0-13.253906-10.746094-24-24-24s-24 10.746094-24 24 10.746094 24 24 24c13.25-.015625 23.984375-10.75 24-24zm-32 0c0-4.417969 3.582031-8 8-8s8 3.582031 8 8-3.582031 8-8 8c-4.414062-.003906-7.996094-3.585938-8-8zm0 0" data-original="#000000" class="active-path" data-old_color="#8327ce" fill="#8327ce"/><path d="m32 80c17.671875 0 32-14.328125 32-32s-14.328125-32-32-32-32 14.328125-32 32c.0195312 17.664062 14.335938 31.980469 32 32zm0-48c8.835938 0 16 7.164062 16 16s-7.164062 16-16 16-16-7.164062-16-16c.007812-8.832031 7.167969-15.992188 16-16zm0 0" data-original="#000000" class="active-path" data-old_color="#8327ce" fill="#8327ce"/><path d="m416 280c-13.457031 0-24 14.054688-24 32 0 4.417969 3.582031 8 8 8s8-3.582031 8-8c0-9.765625 4.738281-16 8-16 4.417969 0 8-3.582031 8-8s-3.582031-8-8-8zm0 0" data-original="#000000" class="active-path" data-old_color="#8327ce" fill="#8327ce"/><path d="m360 384c-4.414062 0-7.992188 3.578125-7.992188 7.992188 0 4.417968 3.578126 7.996093 7.992188 7.996093v.011719c0 4.417969 3.582031 8 8 8s8-3.582031 8-8c-.007812-8.832031-7.167969-15.992188-16-16zm0 0" data-original="#000000" class="active-path" data-old_color="#8327ce" fill="#8327ce"/></g> </svg>
