<?xml version="1.0"?>
<svg xmlns="http://www.w3.org/2000/svg" xmlns:xlink="http://www.w3.org/1999/xlink" version="1.1" id="Capa_1" x="0px" y="0px" viewBox="0 0 16.571 16.571" style="enable-background:new 0 0 16.571 16.571;" xml:space="preserve" width="512px" height="512px"><g><g>
	<g>
		<circle cx="10.235" cy="1.945" r="0.852" data-original="#030104" class="active-path" data-old_color="#8327ce" fill="#8327ce"/>
		<circle cx="12.816" cy="1.945" r="0.852" data-original="#030104" class="active-path" data-old_color="#8327ce" fill="#8327ce"/>
		<path d="M14.111,0H2.46C1.9,0,1.443,0.447,1.443,0.997l0.059,14.465c0,0.611,0.498,1.109,1.109,1.109    h11.347c0.612,0,1.11-0.498,1.11-1.109l0.059-14.465C15.128,0.447,14.672,0,14.111,0z M14.329,15.463    c0,0.203-0.166,0.369-0.37,0.369H2.612c-0.204,0-0.37-0.166-0.37-0.369V4.114c0-0.144,0.083-0.272,0.215-0.334h11.657    c0.133,0.062,0.215,0.19,0.215,0.334V15.463z M14.388,2.84c0,0.115-0.084,0.216-0.206,0.247H2.389    C2.268,3.057,2.183,2.956,2.183,2.84V0.997c0-0.142,0.124-0.257,0.277-0.257h11.651c0.152,0,0.276,0.115,0.276,0.257V2.84H14.388z    " data-original="#030104" class="active-path" data-old_color="#8327ce" fill="#8327ce"/>
		<path d="M8.285,4.826c-2.74,0-4.962,2.222-4.962,4.962s2.222,4.962,4.962,4.962s4.963-2.222,4.963-4.962    C13.248,7.048,11.026,4.826,8.285,4.826z M12.271,9.958c0,2.201-1.784,3.984-3.985,3.984c-2.2,0-3.984-1.783-3.984-3.984    s0.635-1.263,3.984,0.806C11.635,12.831,12.271,7.756,12.271,9.958z" data-original="#030104" class="active-path" data-old_color="#8327ce" fill="#8327ce"/>
	</g>
</g></g> </svg>
